<svg xmlns="http://www.w3.org/2000/svg" viewBox="-12 -12 184 184" role="img" aria-label="Aquarius">
  <path d="M46 31H111C124.8 31 136 42.2 136 56V86C136 99.8 124.8 111 111 111H46C32.2 111 21 99.8 21 86V56C21 42.2 32.2 31 46 31Z" fill="#1E293B" stroke="#1E293B" stroke-width="6" stroke-linejoin="round"/>
  <path d="M40 25H105C118.8 25 130 36.2 130 50V80C130 93.8 118.8 105 105 105H75L45 135L55 105H40C26.2 105 15 93.8 15 80V50C15 36.2 26.2 25 40 25Z" fill="#FDFBF7" stroke="#1E293B" stroke-width="6" stroke-linejoin="round"/>
  <path d="M30 65Q75 55 115 65" stroke="#FEF08A" stroke-width="22" stroke-linecap="round" fill="none" opacity=".8"/>
  <path d="M35 55C48 35 62 75 75 55C88 35 102 75 115 55" fill="none" stroke="#38BDF8" stroke-width="6" stroke-linecap="round" stroke-linejoin="round"/>
  <path d="M35 75C48 55 62 95 75 75C88 55 102 95 115 75" fill="none" stroke="#1E293B" stroke-width="6" stroke-linecap="round" stroke-linejoin="round"/>
  <path d="M128 6Q128 22 144 22Q128 22 128 38Q128 22 112 22Q128 22 128 6Z" fill="#FDE047" stroke="#1E293B" stroke-width="5" stroke-linejoin="round"/>
  <circle cx="144" cy="10" r="2.5" fill="#1E293B"/>
  <g transform="translate(18 16) rotate(-42)">
    <g transform="translate(4 9)">
      <path d="M0-10L-26-2L-26 30L0 22Z" fill="#1E293B" stroke="#1E293B" stroke-width="4" stroke-linejoin="round"/>
      <path d="M0-10L26-2L26 30L0 22Z" fill="#1E293B" stroke="#1E293B" stroke-width="4" stroke-linejoin="round"/>
    </g>
    <path d="M-14-1L-26-12L-18-16L-8-4Z" fill="#E11D48" stroke="#1E293B" stroke-width="3" stroke-linejoin="round"/>
    <g transform="translate(0 7)">
      <path d="M0-10L-26-2L-26 30L0 22Z" fill="#FDFBF7" stroke="#1E293B" stroke-width="4" stroke-linejoin="round"/>
      <path d="M0-10L26-2L26 30L0 22Z" fill="#FDFBF7" stroke="#1E293B" stroke-width="4" stroke-linejoin="round"/>
      <line x1="0" y1="-10" x2="0" y2="22" stroke="#1E293B" stroke-width="2.5" stroke-linecap="round" opacity=".4"/>
    </g>
    <path d="M0-10L-26-2L-26 30L0 22Z" fill="#3B82F6" stroke="#1E293B" stroke-width="4" stroke-linejoin="round"/>
    <path d="M0-10L26-2L26 30L0 22Z" fill="#3B82F6" stroke="#1E293B" stroke-width="4" stroke-linejoin="round"/>
    <line x1="0" y1="-10" x2="0" y2="22" stroke="#1E293B" stroke-width="4" stroke-linecap="round"/>
    <line x1="-18" y1="5" x2="-6" y2="1" stroke="#1E293B" stroke-width="2.5" stroke-linecap="round" opacity=".6"/>
    <line x1="-18" y1="11" x2="-10" y2="8" stroke="#1E293B" stroke-width="2.5" stroke-linecap="round" opacity=".6"/>
    <line x1="18" y1="5" x2="6" y2="1" stroke="#1E293B" stroke-width="2.5" stroke-linecap="round" opacity=".6"/>
  </g>
</svg>
